<mxfile host="app.diagrams.net" modified="2023-06-29T12:44:50.660Z" agent="Mozilla/5.0 (X11; Linux x86_64; rv:109.0) Gecko/20100101 Firefox/114.0" etag="Q-8mdXeCCC7rTib0NMEz" version="21.5.0" type="device">
  <diagram name="Page-1" id="ft9yl4wNdAXIRLAj3kd5">
    <mxGraphModel dx="989" dy="546" grid="1" gridSize="10" guides="1" tooltips="1" connect="1" arrows="1" fold="1" page="1" pageScale="1" pageWidth="850" pageHeight="1100" math="0" shadow="0">
      <root>
        <mxCell id="0" />
        <mxCell id="1" parent="0" />
        <mxCell id="Zgdi9i-JgueP4XxAUd2s-1" value="producer&lt;sub&gt;v.w.x.y.z&lt;/sub&gt;" style="ellipse;whiteSpace=wrap;html=1;fillColor=#dae8fc;strokeColor=#6c8ebf;" vertex="1" parent="1">
          <mxGeometry x="20" y="350" width="120" height="80" as="geometry" />
        </mxCell>
        <mxCell id="Zgdi9i-JgueP4XxAUd2s-2" value="exchange" style="ellipse;whiteSpace=wrap;html=1;fillColor=#fff2cc;strokeColor=#d6b656;" vertex="1" parent="1">
          <mxGeometry x="280" y="350" width="120" height="80" as="geometry" />
        </mxCell>
        <mxCell id="Zgdi9i-JgueP4XxAUd2s-6" value="Consumer&lt;sub&gt;2.0.0.0.0&lt;/sub&gt;" style="ellipse;whiteSpace=wrap;html=1;fillColor=#d5e8d4;strokeColor=#82b366;" vertex="1" parent="1">
          <mxGeometry x="730" y="30" width="120" height="80" as="geometry" />
        </mxCell>
        <mxCell id="Zgdi9i-JgueP4XxAUd2s-8" value="Consumer&lt;sub&gt;2.1.0.0.0&lt;/sub&gt;" style="ellipse;whiteSpace=wrap;html=1;fillColor=#d5e8d4;strokeColor=#82b366;" vertex="1" parent="1">
          <mxGeometry x="730" y="140" width="120" height="80" as="geometry" />
        </mxCell>
        <mxCell id="Zgdi9i-JgueP4XxAUd2s-9" value="Consumer&lt;sub&gt;2.2.0.0.0&lt;/sub&gt;" style="ellipse;whiteSpace=wrap;html=1;fillColor=#d5e8d4;strokeColor=#82b366;" vertex="1" parent="1">
          <mxGeometry x="730" y="250" width="120" height="80" as="geometry" />
        </mxCell>
        <mxCell id="Zgdi9i-JgueP4XxAUd2s-10" value="Consumer&lt;sub&gt;2.3.0.0.0&lt;/sub&gt;" style="ellipse;whiteSpace=wrap;html=1;fillColor=#d5e8d4;strokeColor=#82b366;" vertex="1" parent="1">
          <mxGeometry x="730" y="360" width="120" height="80" as="geometry" />
        </mxCell>
        <mxCell id="Zgdi9i-JgueP4XxAUd2s-11" value="Consumer&lt;sub&gt;2.9.9.9.9&lt;/sub&gt;" style="ellipse;whiteSpace=wrap;html=1;fillColor=#d5e8d4;strokeColor=#82b366;" vertex="1" parent="1">
          <mxGeometry x="730" y="540" width="120" height="80" as="geometry" />
        </mxCell>
        <mxCell id="Zgdi9i-JgueP4XxAUd2s-12" value="Queue&lt;sub&gt;2.0.0.0.0&lt;/sub&gt;" style="shape=process;whiteSpace=wrap;html=1;backgroundOutline=1;fillColor=#f8cecc;strokeColor=#b85450;" vertex="1" parent="1">
          <mxGeometry x="540" y="40" width="120" height="60" as="geometry" />
        </mxCell>
        <mxCell id="Zgdi9i-JgueP4XxAUd2s-13" value="Queue&lt;sub&gt;2.1.0.0.0&lt;/sub&gt;" style="shape=process;whiteSpace=wrap;html=1;backgroundOutline=1;fillColor=#f8cecc;strokeColor=#b85450;" vertex="1" parent="1">
          <mxGeometry x="540" y="150" width="120" height="60" as="geometry" />
        </mxCell>
        <mxCell id="Zgdi9i-JgueP4XxAUd2s-14" value="Queue&lt;sub&gt;2.2.0.0.0&lt;/sub&gt;" style="shape=process;whiteSpace=wrap;html=1;backgroundOutline=1;fillColor=#f8cecc;strokeColor=#b85450;" vertex="1" parent="1">
          <mxGeometry x="540" y="260" width="120" height="60" as="geometry" />
        </mxCell>
        <mxCell id="Zgdi9i-JgueP4XxAUd2s-15" value="Queue&lt;sub&gt;2.3.0.0.0&lt;/sub&gt;" style="shape=process;whiteSpace=wrap;html=1;backgroundOutline=1;fillColor=#f8cecc;strokeColor=#b85450;" vertex="1" parent="1">
          <mxGeometry x="540" y="370" width="120" height="60" as="geometry" />
        </mxCell>
        <mxCell id="Zgdi9i-JgueP4XxAUd2s-16" value="Queue&lt;sub&gt;2.9.9.9.9&lt;/sub&gt;" style="shape=process;whiteSpace=wrap;html=1;backgroundOutline=1;fillColor=#f8cecc;strokeColor=#b85450;" vertex="1" parent="1">
          <mxGeometry x="540" y="550" width="120" height="60" as="geometry" />
        </mxCell>
        <mxCell id="Zgdi9i-JgueP4XxAUd2s-17" value="" style="endArrow=classic;html=1;rounded=0;exitX=1;exitY=0.5;exitDx=0;exitDy=0;entryX=0;entryY=0.5;entryDx=0;entryDy=0;" edge="1" parent="1" source="Zgdi9i-JgueP4XxAUd2s-1" target="Zgdi9i-JgueP4XxAUd2s-2">
          <mxGeometry relative="1" as="geometry">
            <mxPoint x="420" y="270" as="sourcePoint" />
            <mxPoint x="520" y="270" as="targetPoint" />
          </mxGeometry>
        </mxCell>
        <mxCell id="Zgdi9i-JgueP4XxAUd2s-18" value="" style="shape=message;html=1;outlineConnect=0;" vertex="1" parent="Zgdi9i-JgueP4XxAUd2s-17">
          <mxGeometry width="20" height="14" relative="1" as="geometry">
            <mxPoint x="-10" y="-7" as="offset" />
          </mxGeometry>
        </mxCell>
        <mxCell id="Zgdi9i-JgueP4XxAUd2s-19" value="" style="endArrow=classic;html=1;rounded=0;exitX=1;exitY=0.5;exitDx=0;exitDy=0;entryX=-0.018;entryY=0.601;entryDx=0;entryDy=0;entryPerimeter=0;dashed=1;dashPattern=12 12;" edge="1" parent="1" source="Zgdi9i-JgueP4XxAUd2s-2" target="Zgdi9i-JgueP4XxAUd2s-12">
          <mxGeometry relative="1" as="geometry">
            <mxPoint x="420" y="270" as="sourcePoint" />
            <mxPoint x="520" y="270" as="targetPoint" />
          </mxGeometry>
        </mxCell>
        <mxCell id="Zgdi9i-JgueP4XxAUd2s-20" value="" style="shape=message;html=1;outlineConnect=0;" vertex="1" parent="Zgdi9i-JgueP4XxAUd2s-19">
          <mxGeometry width="20" height="14" relative="1" as="geometry">
            <mxPoint x="-10" y="-7" as="offset" />
          </mxGeometry>
        </mxCell>
        <mxCell id="Zgdi9i-JgueP4XxAUd2s-21" value="" style="endArrow=classic;html=1;rounded=0;exitX=1;exitY=0.5;exitDx=0;exitDy=0;entryX=0;entryY=0.5;entryDx=0;entryDy=0;dashed=1;dashPattern=12 12;" edge="1" parent="1" source="Zgdi9i-JgueP4XxAUd2s-2" target="Zgdi9i-JgueP4XxAUd2s-13">
          <mxGeometry relative="1" as="geometry">
            <mxPoint x="410" y="400" as="sourcePoint" />
            <mxPoint x="548" y="86" as="targetPoint" />
          </mxGeometry>
        </mxCell>
        <mxCell id="Zgdi9i-JgueP4XxAUd2s-22" value="" style="shape=message;html=1;outlineConnect=0;" vertex="1" parent="Zgdi9i-JgueP4XxAUd2s-21">
          <mxGeometry width="20" height="14" relative="1" as="geometry">
            <mxPoint x="-10" y="-7" as="offset" />
          </mxGeometry>
        </mxCell>
        <mxCell id="Zgdi9i-JgueP4XxAUd2s-23" value="" style="endArrow=classic;html=1;rounded=0;exitX=1;exitY=0.5;exitDx=0;exitDy=0;entryX=0;entryY=0.5;entryDx=0;entryDy=0;dashed=1;dashPattern=12 12;" edge="1" parent="1" source="Zgdi9i-JgueP4XxAUd2s-2" target="Zgdi9i-JgueP4XxAUd2s-14">
          <mxGeometry relative="1" as="geometry">
            <mxPoint x="420" y="410" as="sourcePoint" />
            <mxPoint x="558" y="96" as="targetPoint" />
          </mxGeometry>
        </mxCell>
        <mxCell id="Zgdi9i-JgueP4XxAUd2s-24" value="" style="shape=message;html=1;outlineConnect=0;" vertex="1" parent="Zgdi9i-JgueP4XxAUd2s-23">
          <mxGeometry width="20" height="14" relative="1" as="geometry">
            <mxPoint x="-10" y="-7" as="offset" />
          </mxGeometry>
        </mxCell>
        <mxCell id="Zgdi9i-JgueP4XxAUd2s-25" value="" style="endArrow=classic;html=1;rounded=0;exitX=1;exitY=0.5;exitDx=0;exitDy=0;entryX=0;entryY=0.5;entryDx=0;entryDy=0;dashed=1;dashPattern=12 12;" edge="1" parent="1" source="Zgdi9i-JgueP4XxAUd2s-2" target="Zgdi9i-JgueP4XxAUd2s-15">
          <mxGeometry relative="1" as="geometry">
            <mxPoint x="430" y="420" as="sourcePoint" />
            <mxPoint x="568" y="106" as="targetPoint" />
          </mxGeometry>
        </mxCell>
        <mxCell id="Zgdi9i-JgueP4XxAUd2s-26" value="" style="shape=message;html=1;outlineConnect=0;" vertex="1" parent="Zgdi9i-JgueP4XxAUd2s-25">
          <mxGeometry width="20" height="14" relative="1" as="geometry">
            <mxPoint x="-10" y="-7" as="offset" />
          </mxGeometry>
        </mxCell>
        <mxCell id="Zgdi9i-JgueP4XxAUd2s-27" value="" style="endArrow=classic;html=1;rounded=0;exitX=1;exitY=0.5;exitDx=0;exitDy=0;entryX=0;entryY=0.5;entryDx=0;entryDy=0;dashed=1;dashPattern=12 12;" edge="1" parent="1" source="Zgdi9i-JgueP4XxAUd2s-2" target="Zgdi9i-JgueP4XxAUd2s-16">
          <mxGeometry relative="1" as="geometry">
            <mxPoint x="440" y="430" as="sourcePoint" />
            <mxPoint x="578" y="116" as="targetPoint" />
          </mxGeometry>
        </mxCell>
        <mxCell id="Zgdi9i-JgueP4XxAUd2s-28" value="" style="shape=message;html=1;outlineConnect=0;" vertex="1" parent="Zgdi9i-JgueP4XxAUd2s-27">
          <mxGeometry width="20" height="14" relative="1" as="geometry">
            <mxPoint x="-10" y="-7" as="offset" />
          </mxGeometry>
        </mxCell>
        <mxCell id="Zgdi9i-JgueP4XxAUd2s-29" value="" style="endArrow=classic;html=1;rounded=0;entryX=0;entryY=0.5;entryDx=0;entryDy=0;exitX=1;exitY=0.5;exitDx=0;exitDy=0;" edge="1" parent="1" source="Zgdi9i-JgueP4XxAUd2s-12" target="Zgdi9i-JgueP4XxAUd2s-6">
          <mxGeometry relative="1" as="geometry">
            <mxPoint x="420" y="270" as="sourcePoint" />
            <mxPoint x="520" y="270" as="targetPoint" />
          </mxGeometry>
        </mxCell>
        <mxCell id="Zgdi9i-JgueP4XxAUd2s-30" value="" style="shape=message;html=1;outlineConnect=0;" vertex="1" parent="Zgdi9i-JgueP4XxAUd2s-29">
          <mxGeometry width="20" height="14" relative="1" as="geometry">
            <mxPoint x="-10" y="-7" as="offset" />
          </mxGeometry>
        </mxCell>
        <mxCell id="Zgdi9i-JgueP4XxAUd2s-31" value="" style="endArrow=classic;html=1;rounded=0;entryX=0;entryY=0.5;entryDx=0;entryDy=0;exitX=1;exitY=0.5;exitDx=0;exitDy=0;" edge="1" parent="1" source="Zgdi9i-JgueP4XxAUd2s-13" target="Zgdi9i-JgueP4XxAUd2s-8">
          <mxGeometry relative="1" as="geometry">
            <mxPoint x="670" y="80" as="sourcePoint" />
            <mxPoint x="740" y="80" as="targetPoint" />
          </mxGeometry>
        </mxCell>
        <mxCell id="Zgdi9i-JgueP4XxAUd2s-32" value="" style="shape=message;html=1;outlineConnect=0;" vertex="1" parent="Zgdi9i-JgueP4XxAUd2s-31">
          <mxGeometry width="20" height="14" relative="1" as="geometry">
            <mxPoint x="-10" y="-7" as="offset" />
          </mxGeometry>
        </mxCell>
        <mxCell id="Zgdi9i-JgueP4XxAUd2s-33" value="" style="endArrow=classic;html=1;rounded=0;entryX=0;entryY=0.5;entryDx=0;entryDy=0;exitX=1;exitY=0.5;exitDx=0;exitDy=0;" edge="1" parent="1" source="Zgdi9i-JgueP4XxAUd2s-14" target="Zgdi9i-JgueP4XxAUd2s-9">
          <mxGeometry relative="1" as="geometry">
            <mxPoint x="680" y="90" as="sourcePoint" />
            <mxPoint x="750" y="90" as="targetPoint" />
          </mxGeometry>
        </mxCell>
        <mxCell id="Zgdi9i-JgueP4XxAUd2s-34" value="" style="shape=message;html=1;outlineConnect=0;" vertex="1" parent="Zgdi9i-JgueP4XxAUd2s-33">
          <mxGeometry width="20" height="14" relative="1" as="geometry">
            <mxPoint x="-10" y="-7" as="offset" />
          </mxGeometry>
        </mxCell>
        <mxCell id="Zgdi9i-JgueP4XxAUd2s-35" value="" style="endArrow=classic;html=1;rounded=0;entryX=0;entryY=0.5;entryDx=0;entryDy=0;exitX=1;exitY=0.5;exitDx=0;exitDy=0;" edge="1" parent="1" source="Zgdi9i-JgueP4XxAUd2s-15" target="Zgdi9i-JgueP4XxAUd2s-10">
          <mxGeometry relative="1" as="geometry">
            <mxPoint x="690" y="100" as="sourcePoint" />
            <mxPoint x="760" y="100" as="targetPoint" />
          </mxGeometry>
        </mxCell>
        <mxCell id="Zgdi9i-JgueP4XxAUd2s-36" value="" style="shape=message;html=1;outlineConnect=0;" vertex="1" parent="Zgdi9i-JgueP4XxAUd2s-35">
          <mxGeometry width="20" height="14" relative="1" as="geometry">
            <mxPoint x="-10" y="-7" as="offset" />
          </mxGeometry>
        </mxCell>
        <mxCell id="Zgdi9i-JgueP4XxAUd2s-37" value="" style="endArrow=classic;html=1;rounded=0;entryX=0;entryY=0.5;entryDx=0;entryDy=0;exitX=1;exitY=0.5;exitDx=0;exitDy=0;" edge="1" parent="1" source="Zgdi9i-JgueP4XxAUd2s-16" target="Zgdi9i-JgueP4XxAUd2s-11">
          <mxGeometry relative="1" as="geometry">
            <mxPoint x="700" y="110" as="sourcePoint" />
            <mxPoint x="770" y="110" as="targetPoint" />
          </mxGeometry>
        </mxCell>
        <mxCell id="Zgdi9i-JgueP4XxAUd2s-38" value="" style="shape=message;html=1;outlineConnect=0;" vertex="1" parent="Zgdi9i-JgueP4XxAUd2s-37">
          <mxGeometry width="20" height="14" relative="1" as="geometry">
            <mxPoint x="-10" y="-7" as="offset" />
          </mxGeometry>
        </mxCell>
        <mxCell id="Zgdi9i-JgueP4XxAUd2s-39" value="&lt;font style=&quot;font-size: 28px;&quot;&gt;...&lt;/font&gt;" style="text;html=1;strokeColor=none;fillColor=none;align=center;verticalAlign=middle;whiteSpace=wrap;rounded=0;" vertex="1" parent="1">
          <mxGeometry x="660" y="480" width="60" height="30" as="geometry" />
        </mxCell>
      </root>
    </mxGraphModel>
  </diagram>
</mxfile>
